<svg xmlns="http://www.w3.org/2000/svg" width="800" height="450" viewBox="0 0 800 450">
  <defs>
    <linearGradient id="bg" x1="0%" y1="0%" x2="100%" y2="100%">
      <stop offset="0%" style="stop-color:#0e1117"/>
      <stop offset="100%" style="stop-color:#0f1f2e"/>
    </linearGradient>
    <linearGradient id="accent" x1="0%" y1="0%" x2="100%" y2="0%">
      <stop offset="0%" style="stop-color:#06b6d4"/>
      <stop offset="100%" style="stop-color:#0284c7"/>
    </linearGradient>
  </defs>
  <rect width="800" height="450" fill="url(#bg)"/>
  <!-- Grid lines -->
  <g stroke="#ffffff08" stroke-width="1">
    <line x1="0" y1="90" x2="800" y2="90"/>
    <line x1="0" y1="180" x2="800" y2="180"/>
    <line x1="0" y1="270" x2="800" y2="270"/>
    <line x1="0" y1="360" x2="800" y2="360"/>
    <line x1="160" y1="0" x2="160" y2="450"/>
    <line x1="320" y1="0" x2="320" y2="450"/>
    <line x1="480" y1="0" x2="480" y2="450"/>
    <line x1="640" y1="0" x2="640" y2="450"/>
  </g>
  <!-- Dashboard cards -->
  <rect x="60" y="60" width="200" height="100" rx="12" fill="#ffffff06" stroke="#06b6d422" stroke-width="1"/>
  <rect x="60" y="60" width="200" height="4" rx="2" fill="url(#accent)"/>
  <text x="80" y="95" font-family="monospace" font-size="11" fill="#94a3b8">Total Orders</text>
  <text x="80" y="125" font-family="monospace" font-size="28" font-weight="bold" fill="#06b6d4">1,284</text>

  <rect x="290" y="60" width="200" height="100" rx="12" fill="#ffffff06" stroke="#06b6d422" stroke-width="1"/>
  <rect x="290" y="60" width="200" height="4" rx="2" fill="url(#accent)"/>
  <text x="310" y="95" font-family="monospace" font-size="11" fill="#94a3b8">Estimates</text>
  <text x="310" y="125" font-family="monospace" font-size="28" font-weight="bold" fill="#06b6d4">347</text>

  <rect x="520" y="60" width="200" height="100" rx="12" fill="#ffffff06" stroke="#06b6d422" stroke-width="1"/>
  <rect x="520" y="60" width="200" height="4" rx="2" fill="url(#accent)"/>
  <text x="540" y="95" font-family="monospace" font-size="11" fill="#94a3b8">Production</text>
  <text x="540" y="125" font-family="monospace" font-size="28" font-weight="bold" fill="#06b6d4">92%</text>

  <!-- Bar chart -->
  <rect x="60" y="190" width="460" height="200" rx="12" fill="#ffffff06" stroke="#06b6d415" stroke-width="1"/>
  <text x="80" y="218" font-family="monospace" font-size="11" fill="#94a3b8">Monthly Production Orders</text>
  <rect x="90" y="340" width="30" height="30" rx="3" fill="#06b6d440"/>
  <rect x="140" y="310" width="30" height="60" rx="3" fill="#06b6d460"/>
  <rect x="190" y="280" width="30" height="90" rx="3" fill="#06b6d480"/>
  <rect x="240" y="250" width="30" height="120" rx="3" fill="#06b6d4a0"/>
  <rect x="290" y="270" width="30" height="100" rx="3" fill="#06b6d480"/>
  <rect x="340" y="240" width="30" height="130" rx="3" fill="#06b6d4c0"/>
  <rect x="390" y="260" width="30" height="110" rx="3" fill="#06b6d4a0"/>
  <rect x="440" y="230" width="30" height="140" rx="3" fill="#06b6d4"/>

  <!-- Label -->
  <text x="400" y="420" font-family="monospace" font-size="13" fill="#64748b" text-anchor="middle">Balajee Glass Industries — ERP Platform</text>
</svg>
