<svg xmlns="http://www.w3.org/2000/svg" width="800" height="450" viewBox="0 0 800 450">
  <defs>
    <linearGradient id="bg" x1="0%" y1="0%" x2="100%" y2="100%">
      <stop offset="0%" style="stop-color:#130d1a"/>
      <stop offset="100%" style="stop-color:#1a0d2e"/>
    </linearGradient>
    <linearGradient id="accent" x1="0%" y1="0%" x2="100%" y2="0%">
      <stop offset="0%" style="stop-color:#ec4899"/>
      <stop offset="100%" style="stop-color:#a855f7"/>
    </linearGradient>
  </defs>
  <rect width="800" height="450" fill="url(#bg)"/>
  <!-- Subtle grid -->
  <g stroke="#ffffff05" stroke-width="1">
    <line x1="0" y1="90" x2="800" y2="90"/>
    <line x1="0" y1="180" x2="800" y2="180"/>
    <line x1="0" y1="270" x2="800" y2="270"/>
    <line x1="0" y1="360" x2="800" y2="360"/>
    <line x1="200" y1="0" x2="200" y2="450"/>
    <line x1="400" y1="0" x2="400" y2="450"/>
    <line x1="600" y1="0" x2="600" y2="450"/>
  </g>
  <!-- Hero nav bar -->
  <rect x="40" y="20" width="720" height="50" rx="10" fill="#ffffff08"/>
  <rect x="60" y="33" width="80" height="24" rx="6" fill="url(#accent)" opacity="0.8"/>
  <text x="100" y="50" font-family="sans-serif" font-size="12" fill="white" text-anchor="middle" font-weight="bold">edunaa</text>
  <rect x="500" y="37" width="60" height="16" rx="8" fill="#ffffff10"/>
  <rect x="570" y="37" width="60" height="16" rx="8" fill="#ffffff10"/>
  <rect x="640" y="37" width="80" height="16" rx="8" fill="url(#accent)" opacity="0.6"/>

  <!-- Video player -->
  <rect x="40" y="90" width="460" height="260" rx="12" fill="#000000a0" stroke="#ec489930" stroke-width="1"/>
  <rect x="40" y="90" width="460" height="3" rx="2" fill="url(#accent)"/>
  <!-- Play button -->
  <circle cx="270" cy="215" r="32" fill="#ec489940" stroke="#ec489980" stroke-width="2"/>
  <polygon points="260,200 260,230 290,215" fill="#ec4899"/>
  <!-- Progress bar -->
  <rect x="60" y="328" width="420" height="4" rx="2" fill="#ffffff15"/>
  <rect x="60" y="328" width="200" height="4" rx="2" fill="url(#accent)"/>
  <text x="60" y="350" font-family="monospace" font-size="10" fill="#94a3b8">Advanced React Patterns — Module 4</text>

  <!-- Course list sidebar -->
  <rect x="520" y="90" width="240" height="260" rx="12" fill="#ffffff06" stroke="#a855f720" stroke-width="1"/>
  <text x="540" y="118" font-family="sans-serif" font-size="11" fill="#94a3b8">Your Courses</text>
  <rect x="540" y="128" width="200" height="40" rx="8" fill="#ec489920"/>
  <rect x="540" y="176" width="200" height="40" rx="8" fill="#ffffff08"/>
  <rect x="540" y="224" width="200" height="40" rx="8" fill="#ffffff08"/>
  <rect x="540" y="272" width="200" height="40" rx="8" fill="#ffffff08"/>
  <!-- Progress bars in courses -->
  <rect x="550" y="158" width="180" height="3" rx="1" fill="#ffffff10"/>
  <rect x="550" y="158" width="140" height="3" rx="1" fill="#ec4899"/>
  <rect x="550" y="206" width="180" height="3" rx="1" fill="#ffffff10"/>
  <rect x="550" y="206" width="80" height="3" rx="1" fill="#a855f7"/>
  <rect x="550" y="254" width="180" height="3" rx="1" fill="#ffffff10"/>
  <rect x="550" y="254" width="50" height="3" rx="1" fill="#a855f7"/>

  <!-- Bottom stats -->
  <rect x="40" y="368" width="200" height="50" rx="10" fill="#ffffff06"/>
  <text x="60" y="390" font-family="monospace" font-size="10" fill="#94a3b8">Courses Completed</text>
  <text x="60" y="408" font-family="monospace" font-size="18" font-weight="bold" fill="#ec4899">24</text>

  <rect x="260" y="368" width="200" height="50" rx="10" fill="#ffffff06"/>
  <text x="280" y="390" font-family="monospace" font-size="10" fill="#94a3b8">Certificates Earned</text>
  <text x="280" y="408" font-family="monospace" font-size="18" font-weight="bold" fill="#a855f7">8</text>

  <rect x="480" y="368" width="280" height="50" rx="10" fill="#ffffff06"/>
  <text x="500" y="390" font-family="monospace" font-size="10" fill="#94a3b8">Platform — East Africa</text>
  <text x="500" y="408" font-family="monospace" font-size="18" font-weight="bold" fill="#ec4899">Edunaa</text>
</svg>
